<?xml version="1.0" standalone="no"?>
<!DOCTYPE svg PUBLIC "-//W3C//DTD SVG 1.1//EN" "http://www.w3.org/Graphics/SVG/1.1/DTD/svg11.dtd">
<svg class="icon" width="256px" height="256.00px" viewBox="0 0 1024 1024" version="1.1" xmlns="http://www.w3.org/2000/svg">
<path d="M248.035556 112.014222a7.964444 7.964444 0 0 1 7.964444 7.964445v87.267555a397.994667 397.994667 0 1 1-141.767111 319.146667l-0.170667-6.428445a7.793778 7.793778 0 0 1 7.395556-7.964444h56.661333a7.964444 7.964444 0 0 1 7.964445 7.566222v0.455111A325.973333 325.973333 0 1 0 310.101333 256h81.92a7.964444 7.964444 0 0 1 7.964445 7.964444v56.035556a7.964444 7.964444 0 0 1-7.964445 7.964444H192a7.964444 7.964444 0 0 1-7.964444-7.964444V119.978667a7.964444 7.964444 0 0 1 7.964444-7.964445h55.978667z" fill="#1D1F24" />
</svg>